<svg width="20" height="37" xmlns="http://www.w3.org/2000/svg"><g fill="#4D4D4D" fill-rule="nonzero"><path d="M18.716 13.033l-7.32-6.412a2.129 2.129 0 0 0-2.792 0L6.007 8.897a6.654 6.654 0 0 1-.23-1.739c0-1.463.462-2.836 1.298-3.859.79-.97 1.835-1.508 2.925-1.508 2.328 0 4.224 2.404 4.224 5.367 0 .493.403.896.895.896a.898.898 0 0 0 .896-.896C16.015 3.21 13.313 0 10 0 8.358 0 6.828.769 5.687 2.165 4.59 3.508 3.985 5.277 3.985 7.158c0 1.06.194 2.083.56 3.023L1.29 13.033A3.774 3.774 0 0 0 .007 15.86v16.08A4.498 4.498 0 0 0 4.5 36.433h11.007A4.498 4.498 0 0 0 20 31.939V15.861a3.77 3.77 0 0 0-1.284-2.828zm-.507 18.906a2.701 2.701 0 0 1-2.702 2.702H4.493A2.701 2.701 0 0 1 1.79 31.94V15.861c0-.567.246-1.112.672-1.485l2.947-2.583.27.359c1.14 1.396 2.67 2.164 4.313 2.164a.898.898 0 0 0 .895-.895.898.898 0 0 0-.895-.896c-1.097 0-2.135-.537-2.926-1.508a8.369 8.369 0 0 1-.306-.41l3.015-2.643a.317.317 0 0 1 .217-.082c.06 0 .141.015.216.082l7.32 6.412c.426.373.672.918.672 1.485V31.94h.008l.001-.001z"/><path d="M10.985 22.654h-1.97a1.265 1.265 0 0 1-1.261-1.262c0-.694.567-1.261 1.26-1.261h3.471a.898.898 0 0 0 .896-.896.898.898 0 0 0-.896-.895h-1.59v-1.165A.898.898 0 0 0 10 16.28a.898.898 0 0 0-.896.896v1.165h-.09a3.056 3.056 0 0 0-3.051 3.052 3.056 3.056 0 0 0 3.052 3.053h1.97c.694 0 1.261.568 1.261 1.262 0 .694-.567 1.261-1.26 1.261H7.447a.898.898 0 0 0-.896.896c0 .493.403.896.896.896h1.656v1.186c0 .493.403.896.896.896a.898.898 0 0 0 .896-.896V28.76h.126a3.058 3.058 0 0 0 3.015-3.053 3.056 3.056 0 0 0-3.052-3.053h.001z"/></g></svg>