<svg xmlns="http://www.w3.org/2000/svg" style="display: none;">
  <symbol id="vk" width="35" height="20">
    <path d="M34.814 18.062a2.402 2.402 0 0 0-.118-.228c-.607-1.095-1.768-2.44-3.48-4.034l-.037-.036-.018-.018-.018-.019h-.019c-.777-.742-1.27-1.24-1.476-1.496-.377-.487-.461-.98-.255-1.479.145-.377.693-1.174 1.64-2.39.498-.646.893-1.162 1.184-1.552 2.102-2.799 3.013-4.587 2.734-5.366l-.109-.182c-.073-.11-.261-.21-.564-.301-.304-.091-.693-.106-1.167-.045l-5.248.036c-.085-.03-.207-.028-.365.009l-.237.055-.091.046-.073.055a.81.81 0 0 0-.2.191 1.253 1.253 0 0 0-.182.32 29.823 29.823 0 0 1-1.95 4.106c-.45.754-.862 1.408-1.24 1.962-.376.553-.692.961-.947 1.223a6.614 6.614 0 0 1-.692.63c-.207.158-.365.225-.474.2-.11-.024-.212-.049-.31-.073a1.213 1.213 0 0 1-.41-.447 2.005 2.005 0 0 1-.21-.712 7.86 7.86 0 0 1-.063-.74c-.006-.206-.003-.498.009-.875.013-.378.018-.633.018-.767 0-.462.01-.964.027-1.506l.046-1.286c.012-.317.018-.651.018-1.004s-.021-.63-.064-.83a2.844 2.844 0 0 0-.19-.585.983.983 0 0 0-.374-.438 2.104 2.104 0 0 0-.61-.246c-.644-.146-1.464-.225-2.46-.237-2.26-.025-3.712.121-4.356.438a2.455 2.455 0 0 0-.692.547c-.22.268-.25.414-.092.438.73.11 1.245.371 1.55.785l.109.219c.085.158.17.438.255.84.085.401.14.845.164 1.332.06.888.06 1.648 0 2.281-.061.633-.119 1.126-.173 1.478-.055.353-.137.64-.246.858a3.62 3.62 0 0 1-.22.402.314.314 0 0 1-.09.09c-.158.061-.322.092-.492.092-.17 0-.377-.085-.62-.255a4.374 4.374 0 0 1-.756-.703c-.261-.298-.556-.715-.884-1.25a21.827 21.827 0 0 1-1.02-1.898l-.292-.53c-.182-.34-.431-.836-.747-1.487a28.703 28.703 0 0 1-.838-1.89 1.203 1.203 0 0 0-.438-.583l-.09-.055c-.061-.049-.159-.1-.292-.155a1.932 1.932 0 0 0-.42-.119L1.167.914c-.51 0-.856.116-1.038.347l-.073.11A.591.591 0 0 0 0 1.663c0 .134.036.298.11.493A60.274 60.274 0 0 0 2.486 7.12c.857 1.594 1.601 2.878 2.233 3.85a45.47 45.47 0 0 0 1.931 2.757c.656.864 1.09 1.417 1.303 1.66.213.244.38.426.501.548l.456.438c.292.292.72.642 1.285 1.05.565.407 1.19.809 1.877 1.204.686.396 1.485.718 2.396.967.911.25 1.798.35 2.66.302h2.096c.425-.037.747-.17.966-.402l.073-.091c.049-.073.094-.186.136-.337.043-.153.064-.32.064-.502a6.023 6.023 0 0 1 .118-1.415c.091-.42.195-.736.31-.949.116-.213.247-.392.392-.538.146-.146.25-.234.31-.265.061-.03.11-.051.146-.063.291-.098.634-.004 1.03.283.395.286.765.639 1.111 1.058.347.42.763.891 1.248 1.415.487.523.912.912 1.276 1.168l.364.219c.244.146.56.28.948.401.389.122.729.152 1.02.092l4.666-.073c.46 0 .82-.077 1.075-.229.255-.152.406-.32.455-.501.05-.183.052-.39.01-.621a2.294 2.294 0 0 0-.129-.484z" fill="#4D4D4D" fill-rule="nonzero"/>
  </symbol>

  <symbol id="instagram" width="35" height="35">
    <path d="M31.5 0h-28A3.51 3.51 0 0 0 0 3.5v28A3.51 3.51 0 0 0 3.5 35h28a3.51 3.51 0 0 0 3.5-3.5v-28A3.51 3.51 0 0 0 31.5 0zm-14 10.5c3.85 0 7 3.15 7 7s-3.15 7-7 7-7-3.15-7-7 3.15-7 7-7zm-13.125 21c-.525 0-.875-.35-.875-.875V15.75h3.675C7 16.275 7 16.975 7 17.5 7 23.275 11.725 28 17.5 28S28 23.275 28 17.5c0-.525 0-1.225-.175-1.75H31.5v14.875c0 .525-.35.875-.875.875H4.375zM31.5 7.875c0 .525-.35.875-.875.875h-3.5c-.525 0-.875-.35-.875-.875v-3.5c0-.525.35-.875.875-.875h3.5c.525 0 .875.35.875.875v3.5z" fill="#4D4D4D" fill-rule="nonzero"/>
  </symbol>

  <symbol id="youtube" width="35" height="24">
    <path d="M34.395 3.86c-.428-1.83-1.95-3.182-3.784-3.383C26.271 0 21.878-.003 17.506 0 13.132-.002 8.739 0 4.398.477 2.567.678 1.045 2.029.617 3.86.007 6.469 0 9.315 0 12c0 2.684 0 5.53.61 8.138.428 1.83 1.95 3.182 3.782 3.384 4.34.477 8.733.48 13.107.477 4.374.002 8.766 0 13.106-.477 1.831-.202 3.354-1.553 3.783-3.384.61-2.608.612-5.454.612-8.139 0-2.685.005-5.531-.605-8.14zM12.983 17.346V5.957L24.11 11.67l-11.127 5.676z" fill="#4D4D4D" fill-rule="nonzero"/>
  </symbol>
</svg>