<svg width="247" height="194" xmlns="http://www.w3.org/2000/svg"><g fill-rule="nonzero" fill="none"><path d="M240.5 48.4L130 1.8c-2.5-1.1-5.2-1.3-7-1.3-1.8 0-4.5.2-7 1.3L5.5 48.4C2 49.8 0 52.5 0 55.6c0 3.1 2 5.8 5.5 7.2l39.4 16.6v46.7c0 1.5.6 2.9 1.7 4s2.5 1.7 4 1.7c.4 0 37.8.4 70.4 33.6 1.1 1.1 2.5 1.7 4 1.7h.5c1.7-.1 3.2-1 4.2-2.4.3-.4 30.6-42.4 79.8-44 3.1-.1 5.5-2.6 5.5-5.7V73.7l25.8-10.8c3.4-1.4 5.5-4.1 5.5-7.2-.3-3.2-2.3-5.9-5.8-7.3zm-37.1 61.2c-20.8 1.8-41.3 10.3-59.6 24.7-9 7.1-15.6 14.1-19.4 18.6-27.2-25.2-56.2-30.9-68.2-32.1V84.2l59.8 25.2c2.5 1.1 5.2 1.3 7 1.3 1.8 0 4.5-.2 7-1.3l73.4-30.9v31.1zm-77.8-10.7c-.4.2-1.4.4-2.6.4-1.2 0-2.2-.2-2.6-.4L17.5 55.6l102.9-43.3c.4-.2 1.4-.4 2.6-.4 1.2 0 2.2.2 2.6.4l102.9 43.3-102.9 43.3z" fill="#333"/><path fill="#4C9C8D" d="M117 43.5l54.9 44.9 1.6 105.4 10.4-32 11.3 12.5-.1-96.8z"/></g></svg>