<?xml version="1.0" encoding="utf-8"?>
<!-- Generator: Adobe Illustrator 16.0.0, SVG Export Plug-In . SVG Version: 6.00 Build 0)  -->
<!DOCTYPE svg PUBLIC "-//W3C//DTD SVG 1.1//EN" "http://www.w3.org/Graphics/SVG/1.1/DTD/svg11.dtd">
<svg version="1.1" id="Layer_1" xmlns="http://www.w3.org/2000/svg" xmlns:xlink="http://www.w3.org/1999/xlink" x="0px" y="0px"
	 width="54px" height="54px" viewBox="0 0 54 54" enable-background="new 0 0 54 54" xml:space="preserve">
<g>
	<g>
		
			<path fill="none" stroke="#FFFFFF" stroke-width="1.5" stroke-linecap="round" stroke-linejoin="round" stroke-miterlimit="10" d="
			M10.101,32.462c-0.033-1.094-0.924-1.973-2.025-1.973H5.832c-1.103,0-1.994,0.879-2.026,1.973H3.8v14.789h6.307V32.462H10.101z"/>
		
			<path fill="none" stroke="#FFFFFF" stroke-width="1.5" stroke-linecap="round" stroke-linejoin="round" stroke-miterlimit="10" d="
			M20.12,27.506c-0.053-1.076-0.934-1.934-2.021-1.934h-2.244c-1.089,0-1.97,0.857-2.022,1.934h-0.009v19.745h6.306V27.506H20.12z"
			/>
		
			<path fill="none" stroke="#FFFFFF" stroke-width="1.5" stroke-linecap="round" stroke-linejoin="round" stroke-miterlimit="10" d="
			M30.149,20.486c-0.012-1.111-0.916-2.008-2.029-2.008h-2.244c-1.114,0-2.017,0.896-2.029,2.008h-0.001V20.5
			c0,0.004-0.001,0.006-0.001,0.008c0,0.004,0.001,0.006,0.001,0.009v26.734h6.306V20.486H30.149z"/>
		
			<path fill="none" stroke="#FFFFFF" stroke-width="1.5" stroke-linecap="round" stroke-linejoin="round" stroke-miterlimit="10" d="
			M40.179,15.627c0-0.014-0.004-0.024-0.004-0.035v-0.024h-0.002c-0.031-1.093-0.924-1.974-2.025-1.974h-2.244
			c-1.103,0-1.995,0.881-2.025,1.974h-0.01v31.684h6.307V15.66C40.175,15.649,40.179,15.638,40.179,15.627z"/>
		
			<path fill="none" stroke="#FFFFFF" stroke-width="1.5" stroke-linecap="round" stroke-linejoin="round" stroke-miterlimit="10" d="
			M50.2,10.231c0-0.004-0.002-0.009-0.002-0.013v-0.057h-0.006C50.155,9.074,49.267,8.2,48.168,8.2h-2.244
			c-1.099,0-1.987,0.874-2.024,1.962h-0.008v37.089h6.307V10.244C50.198,10.24,50.2,10.236,50.2,10.231z"/>
	</g>
</g>
</svg>
