<?xml version="1.0" encoding="utf-8"?>
<!-- Generator: Adobe Illustrator 16.0.0, SVG Export Plug-In . SVG Version: 6.00 Build 0)  -->
<!DOCTYPE svg PUBLIC "-//W3C//DTD SVG 1.1//EN" "http://www.w3.org/Graphics/SVG/1.1/DTD/svg11.dtd">
<svg version="1.1" id="Layer_1" xmlns="http://www.w3.org/2000/svg" xmlns:xlink="http://www.w3.org/1999/xlink" x="0px" y="0px"
	 width="54px" height="54px" viewBox="0 0 54 54" enable-background="new 0 0 54 54" xml:space="preserve">
<g>
	<g>
		<g>
			
				<path fill="none" stroke="#FFFFFF" stroke-width="1.5" stroke-linecap="round" stroke-linejoin="round" stroke-miterlimit="10" d="
				M22.71,37.894c-6.668,0.656-11.625,2.812-12.312,5.379c-0.369,1.375-0.787,3.982-1.146,6.508"/>
			
				<path fill="none" stroke="#FFFFFF" stroke-width="1.5" stroke-linecap="round" stroke-linejoin="round" stroke-miterlimit="10" d="
				M44.749,49.78c-0.357-2.525-0.777-5.133-1.146-6.508c-0.68-2.541-5.602-4.682-12.191-5.359"/>
		</g>
		<g>
			
				<path fill="none" stroke="#FFFFFF" stroke-width="1.5" stroke-linecap="round" stroke-linejoin="round" stroke-miterlimit="10" d="
				M31.29,37.919c0,0-1.045-1.564-0.201-4.961"/>
			
				<path fill="none" stroke="#FFFFFF" stroke-width="1.5" stroke-linecap="round" stroke-linejoin="round" stroke-miterlimit="10" d="
				M22.839,32.683c0.973,3.588-0.127,5.236-0.127,5.236"/>
			<g>
				<g>
					<g>
						<g>
							<g>
								<g>
									<g>
										<g>
											<g>
												
													<path fill="none" stroke="#FFFFFF" stroke-width="1.5" stroke-linecap="round" stroke-linejoin="round" stroke-miterlimit="10" d="
													M17.981,20.323c0.061,3.283,0.676,5.883,1.576,7.914c2.086,4.707,5.695,6.352,7.443,6.352s5.357-1.645,7.441-6.352
													c0.914-2.062,1.535-4.711,1.58-8.064"/>
											</g>
										</g>
									</g>
								</g>
							</g>
						</g>
					</g>
				</g>
			</g>
			
				<path fill="none" stroke="#FFFFFF" stroke-width="1.5" stroke-linecap="round" stroke-linejoin="round" stroke-miterlimit="10" d="
				M22.72,37.919c0,0-0.795,6.186,4.289,6.186s4.273-6.186,4.273-6.186"/>
			
				<path fill="none" stroke="#FFFFFF" stroke-width="1.5" stroke-linecap="round" stroke-linejoin="round" stroke-miterlimit="10" d="
				M36.882,20.501c0-10.787-4.357-13.695-9.881-13.695l0,0l0,0l0,0l0,0c-5.523,0-9.883,2.834-9.883,13.695
				c0,0,12.998-3.395,12.998-6.484C30.116,17.106,36.882,20.501,36.882,20.501z"/>
			
				<path fill="none" stroke="#FFFFFF" stroke-width="1.5" stroke-linecap="round" stroke-linejoin="round" stroke-miterlimit="10" d="
				M23.437,7.323c0-1.969,1.596-3.104,3.564-3.104s3.562,1.135,3.562,3.104"/>
			<g>
				<g>
					<g>
						
							<path fill="none" stroke="#FFFFFF" stroke-width="1.5" stroke-linecap="round" stroke-linejoin="round" stroke-miterlimit="10" d="
							M23.493,24.698c-1.342,0-2.432-1.09-2.432-2.432s1.09-2.432,2.432-2.432s2.432,1.09,2.432,2.432S24.835,24.698,23.493,24.698z
							"/>
					</g>
					<g>
						
							<path fill="none" stroke="#FFFFFF" stroke-width="1.5" stroke-linecap="round" stroke-linejoin="round" stroke-miterlimit="10" d="
							M30.509,24.698c-1.344,0-2.434-1.09-2.434-2.432s1.09-2.432,2.434-2.432c1.342,0,2.432,1.09,2.432,2.432
							S31.851,24.698,30.509,24.698z"/>
					</g>
				</g>
				<g>
					
						<line fill="none" stroke="#FFFFFF" stroke-width="1.5" stroke-linecap="round" stroke-linejoin="round" stroke-miterlimit="10" x1="18.53" y1="21.573" x2="20.948" y2="22.083"/>
				</g>
				<g>
					
						<line fill="none" stroke="#FFFFFF" stroke-width="1.5" stroke-linecap="round" stroke-linejoin="round" stroke-miterlimit="10" x1="33.06" y1="22.073" x2="35.433" y2="21.573"/>
				</g>
			</g>
		</g>
		<g>
			
				<circle fill="none" stroke="#FFFFFF" stroke-width="1.5" stroke-linecap="round" stroke-linejoin="round" stroke-miterlimit="10" cx="27" cy="47.022" r="1.075"/>
		</g>
	</g>
	
		<line fill="none" stroke="#FFFFFF" stroke-width="1.5" stroke-linecap="round" stroke-linejoin="round" stroke-miterlimit="10" x1="25.925" y1="21.144" x2="27.899" y2="21.144"/>
</g>
</svg>
