<?xml version="1.0" encoding="utf-8"?>
<!-- Generator: Adobe Illustrator 16.0.0, SVG Export Plug-In . SVG Version: 6.00 Build 0)  -->
<!DOCTYPE svg PUBLIC "-//W3C//DTD SVG 1.1//EN" "http://www.w3.org/Graphics/SVG/1.1/DTD/svg11.dtd">
<svg version="1.1" id="Layer_1" xmlns="http://www.w3.org/2000/svg" xmlns:xlink="http://www.w3.org/1999/xlink" x="0px" y="0px"
	 width="54px" height="54px" viewBox="0 0 54 54" enable-background="new 0 0 54 54" xml:space="preserve">
<g>
	<g>
		
			<path fill="none" stroke="#FFFFFF" stroke-width="1.5" stroke-linecap="round" stroke-linejoin="round" stroke-miterlimit="10" d="
			M12.629,41.814H5.625c-0.561,0-1.016,0.455-1.016,1.018v3.449c0,0.561,0.455,1.018,1.016,1.018h7.004
			c0.562,0,1.018-0.457,1.018-1.018v-3.449C13.646,42.27,13.191,41.814,12.629,41.814z"/>
		
			<path fill="none" stroke="#FFFFFF" stroke-width="1.5" stroke-linecap="round" stroke-linejoin="round" stroke-miterlimit="10" d="
			M12.629,33.592H5.625c-0.561,0-1.016,0.457-1.016,1.02v3.449c0,0.562,0.455,1.018,1.016,1.018h7.004
			c0.562,0,1.018-0.455,1.018-1.018v-3.449C13.646,34.049,13.191,33.592,12.629,33.592z"/>
		
			<path fill="none" stroke="#FFFFFF" stroke-width="1.5" stroke-linecap="round" stroke-linejoin="round" stroke-miterlimit="10" d="
			M12.629,24.986H5.625c-0.561,0-1.016,0.456-1.016,1.018v3.451c0,0.561,0.455,1.018,1.016,1.018h7.004
			c0.562,0,1.018-0.457,1.018-1.018v-3.451C13.646,25.442,13.191,24.986,12.629,24.986z"/>
		
			<path fill="none" stroke="#FFFFFF" stroke-width="1.5" stroke-linecap="round" stroke-linejoin="round" stroke-miterlimit="10" d="
			M24.543,41.814h-7.002c-0.562,0-1.018,0.455-1.018,1.018v3.449c0,0.561,0.455,1.018,1.018,1.018h7.002
			c0.562,0,1.018-0.457,1.018-1.018v-3.449C25.561,42.27,25.105,41.814,24.543,41.814z"/>
		
			<path fill="none" stroke="#FFFFFF" stroke-width="1.5" stroke-linecap="round" stroke-linejoin="round" stroke-miterlimit="10" d="
			M24.543,33.592h-7.002c-0.562,0-1.018,0.457-1.018,1.02v3.449c0,0.562,0.455,1.018,1.018,1.018h7.002
			c0.562,0,1.018-0.455,1.018-1.018v-3.449C25.561,34.049,25.105,33.592,24.543,33.592z"/>
		
			<path fill="none" stroke="#FFFFFF" stroke-width="1.5" stroke-linecap="round" stroke-linejoin="round" stroke-miterlimit="10" d="
			M24.543,24.986h-7.002c-0.562,0-1.018,0.456-1.018,1.018v3.451c0,0.561,0.455,1.018,1.018,1.018h7.002
			c0.562,0,1.018-0.457,1.018-1.018v-3.451C25.561,25.442,25.105,24.986,24.543,24.986z"/>
		
			<path fill="none" stroke="#FFFFFF" stroke-width="1.5" stroke-linecap="round" stroke-linejoin="round" stroke-miterlimit="10" d="
			M24.543,16.743h-7.002c-0.562,0-1.018,0.454-1.018,1.016v3.45c0,0.562,0.455,1.019,1.018,1.019h7.002
			c0.562,0,1.018-0.456,1.018-1.019v-3.45C25.561,17.197,25.105,16.743,24.543,16.743z"/>
		
			<path fill="none" stroke="#FFFFFF" stroke-width="1.5" stroke-linecap="round" stroke-linejoin="round" stroke-miterlimit="10" d="
			M24.543,8.5h-7.002c-0.562,0-1.018,0.456-1.018,1.018v3.449c0,0.562,0.455,1.019,1.018,1.019h7.002
			c0.562,0,1.018-0.456,1.018-1.019V9.518C25.561,8.956,25.105,8.5,24.543,8.5z"/>
		
			<path fill="none" stroke="#FFFFFF" stroke-width="1.5" stroke-linecap="round" stroke-linejoin="round" stroke-miterlimit="10" d="
			M36.457,41.814h-7.002c-0.562,0-1.018,0.455-1.018,1.018v3.449c0,0.561,0.455,1.018,1.018,1.018h7.002
			c0.562,0,1.018-0.457,1.018-1.018v-3.449C37.475,42.27,37.02,41.814,36.457,41.814z"/>
		
			<path fill="none" stroke="#FFFFFF" stroke-width="1.5" stroke-linecap="round" stroke-linejoin="round" stroke-miterlimit="10" d="
			M36.457,33.592h-7.002c-0.562,0-1.018,0.457-1.018,1.02v3.449c0,0.562,0.455,1.018,1.018,1.018h7.002
			c0.562,0,1.018-0.455,1.018-1.018v-3.449C37.475,34.049,37.02,33.592,36.457,33.592z"/>
		
			<path fill="none" stroke="#FFFFFF" stroke-width="1.5" stroke-linecap="round" stroke-linejoin="round" stroke-miterlimit="10" d="
			M48.371,41.814h-7c-0.562,0-1.02,0.455-1.02,1.018v3.449c0,0.561,0.457,1.018,1.02,1.018h7c0.562,0,1.02-0.457,1.02-1.018v-3.449
			C49.391,42.27,48.934,41.814,48.371,41.814z"/>
		
			<path fill="none" stroke="#FFFFFF" stroke-width="1.5" stroke-linecap="round" stroke-linejoin="round" stroke-miterlimit="10" d="
			M48.371,33.592h-7c-0.562,0-1.02,0.457-1.02,1.02v3.449c0,0.562,0.457,1.018,1.02,1.018h7c0.562,0,1.02-0.455,1.02-1.018v-3.449
			C49.391,34.049,48.934,33.592,48.371,33.592z"/>
		
			<path fill="none" stroke="#FFFFFF" stroke-width="1.5" stroke-linecap="round" stroke-linejoin="round" stroke-miterlimit="10" d="
			M48.371,24.986h-7c-0.562,0-1.02,0.456-1.02,1.018v3.451c0,0.561,0.457,1.018,1.02,1.018h7c0.562,0,1.02-0.457,1.02-1.018v-3.451
			C49.391,25.442,48.934,24.986,48.371,24.986z"/>
		
			<path fill="none" stroke="#FFFFFF" stroke-width="1.5" stroke-linecap="round" stroke-linejoin="round" stroke-miterlimit="10" d="
			M48.371,16.743h-7c-0.562,0-1.02,0.454-1.02,1.016v3.45c0,0.562,0.457,1.019,1.02,1.019h7c0.562,0,1.02-0.456,1.02-1.019v-3.45
			C49.391,17.197,48.934,16.743,48.371,16.743z"/>
	</g>
</g>
</svg>
