<svg width="285" height="42" xmlns="http://www.w3.org/2000/svg"><path d="M79.625 20.844c0 3.698-.836 6.468-2.508 8.312-1.672 1.844-4.19 2.766-7.555 2.766-1.635 0-3.046-.211-4.234-.633-1.187-.422-2.15-1.055-2.89-1.898-.688-.782-1.204-1.782-1.547-3-.344-1.22-.516-2.651-.516-4.297 0-1.365.159-3.404.477-6.117.317-2.714.476-4.753.476-6.118 0-.885-.065-1.661-.195-2.328-.13-.666-.326-1.229-.586-1.687l1.328-.594c.48.948.862 2.026 1.148 3.234.287 1.209.482 2.542.586 4 .032.459.055 1.318.07 2.579.016 1.26.024 2.921.024 4.984 0 1.27.034 2.351.102 3.242.067.89.169 1.586.304 2.086.292 1.042.74 1.823 1.344 2.344.604.52 1.365.781 2.281.781 1.063 0 1.961-.182 2.696-.547a3.891 3.891 0 0 0 1.71-1.656c.292-.531.514-1.203.665-2.016.15-.812.226-1.77.226-2.875 0-.208-.005-.458-.015-.75a139.315 139.315 0 0 1-.055-2.023 36.195 36.195 0 0 1-.008-.633l2.39-.188-.156-1.843-2.265.078-.078-1.75 2.234-.11-.062-1.812h-2.172l-.078-1.828 2.25.156V9.031l-2.25-.203-.079-1.86 6.485.641c.146 4.25.258 7.48.336 9.688.078 2.208.117 3.39.117 3.547zm-9.828-1.89c0 .54-.19 1.004-.57 1.39-.38.385-.836.578-1.368.578-.541 0-.997-.195-1.367-.586a1.945 1.945 0 0 1-.555-1.383c0-.52.185-.974.555-1.36a1.82 1.82 0 0 1 1.367-.577c.532 0 .987.19 1.368.57.38.38.57.836.57 1.367zM94.953 20c0 .865-.187 1.508-.562 1.93-.375.422-.938.633-1.688.633-.677 0-1.185-.128-1.523-.383-.339-.256-.508-.638-.508-1.149 0-.25.068-.476.203-.68.135-.203.339-.377.61-.523l.453.328c-.073.084-.13.164-.172.242a.48.48 0 0 0-.063.227c0 .208.063.362.188.46.125.1.307.15.546.15.334 0 .579-.081.735-.243.156-.161.234-.414.234-.758 0-.27-.07-.515-.21-.734a1.726 1.726 0 0 0-.633-.563 2.703 2.703 0 0 0-.727-.28 3.783 3.783 0 0 0-.867-.095c-.396 0-.753.05-1.07.149a3.216 3.216 0 0 0-.899.445c-.302.219-.526.48-.672.782-.146.302-.219.64-.219 1.015 0 .365.141.721.422 1.07.282.35.693.696 1.235 1.04.979.625 1.726 1.098 2.242 1.421.515.323.789.5.82.532.563.468.98.976 1.25 1.523a4.01 4.01 0 0 1 .406 1.805c0 .875-.164 1.666-.492 2.375-.328.708-.83 1.323-1.508 1.843a6.74 6.74 0 0 1-2.07 1.094 8.039 8.039 0 0 1-2.508.375c-.594 0-1.161-.07-1.703-.21a6.805 6.805 0 0 1-1.578-.633 5.518 5.518 0 0 1-1.367-1.032 5.615 5.615 0 0 1-.977-1.39l1.156-1.078c.48.895 1.068 1.562 1.766 2 .698.437 1.5.656 2.406.656.823 0 1.498-.242 2.024-.727.526-.484.789-1.127.789-1.93 0-.52-.117-1.028-.352-1.523-.234-.495-.59-.976-1.07-1.445-.438-.386-.88-.771-1.328-1.157l-1.344-1.156c-.469-.479-.823-.979-1.062-1.5a3.881 3.881 0 0 1-.36-1.64c0-.698.151-1.323.453-1.875.302-.552.745-1.037 1.329-1.453.51-.365 1.08-.63 1.71-.797a8.019 8.019 0 0 1 2.055-.25c.615 0 1.172.054 1.672.164.5.11.943.268 1.328.476.51.271.888.615 1.133 1.032.245.416.367.895.367 1.437zm-8.375 7.094c0 .531-.187.982-.562 1.351-.375.37-.823.555-1.344.555-.521 0-.969-.187-1.344-.563a1.834 1.834 0 0 1-.562-1.343c0-.521.187-.969.562-1.344a1.834 1.834 0 0 1 1.344-.563c.52 0 .969.188 1.344.563.375.375.562.823.562 1.344zm27.89 3.718c-.26.26-.494.493-.702.696-.209.203-.391.367-.547.492l1.172 1.75-1.094.64-1.188-1.468c-.416.25-.859.46-1.328.633-.469.172-.968.289-1.5.351l-.031 1.844-1.406-.094.125-1.703c-.48 0-.99-.05-1.531-.148a12.514 12.514 0 0 1-1.704-.446l-.875 1.875-1.406-.765.953-1.75a7.888 7.888 0 0 1-1.398-.977 6.779 6.779 0 0 1-1.117-1.258l-1.672 1.063-.703-1.11 1.828-.953a8.402 8.402 0 0 1-.563-1.539 9.273 9.273 0 0 1-.265-1.617l-1.672.422-.485-1.375 2.157-.484c.052-.584.14-1.11.265-1.578.125-.47.287-.886.485-1.25l-1.516-.907.719-1.187L100.953 21a6.452 6.452 0 0 1 1.828-1.563l-1.281-1.859 1.406-.687 1.031 1.984c.334-.104.636-.187.907-.25.27-.063.51-.11.719-.14l.421-2.047 1.11.343-.281 1.625a4.286 4.286 0 0 1 2.266.625l1.546-1.531.875.734-1.469 1.594c.23.219.443.482.64.79.199.306.376.648.532 1.023l1.828-.61.313 1.157-1.766.609c.083.229.154.479.211.75.057.27.112.562.164.875l-7.266 1.265v.172c0 .76.081 1.477.243 2.149a7.64 7.64 0 0 0 .742 1.914c.396.719.87 1.258 1.422 1.617.552.36 1.172.54 1.86.54.707 0 1.452-.188 2.234-.563.78-.375 1.609-.948 2.484-1.72l.797 1.017zm-6.39-7.671c-.042-.459-.21-.802-.508-1.032-.297-.229-.721-.343-1.273-.343-.677 0-1.307.203-1.89.609-.584.406-.98.927-1.188 1.563l4.86-.797zm17.469-11.375c0 .198-.01.356-.031.476-.021.12-.045.216-.07.29-.027.072-.06.122-.102.148a.29.29 0 0 1-.157.039.727.727 0 0 1-.273-.07 8.178 8.178 0 0 0-.398-.157 4.316 4.316 0 0 0-.555-.156 3.488 3.488 0 0 0-.742-.07c-.386 0-.714.062-.985.187-.27.125-.49.32-.656.586-.167.266-.286.61-.36 1.031-.072.422-.109.935-.109 1.54v1.53h3.14c.084 0 .155.019.212.055.057.037.11.1.156.188.047.088.083.2.11.336.025.135.038.302.038.5 0 .375-.046.646-.14.812-.094.167-.219.25-.375.25h-3.14V31.61c0 .084-.022.154-.063.211a.488.488 0 0 1-.211.149 1.548 1.548 0 0 1-.399.093c-.166.021-.375.032-.625.032s-.458-.01-.625-.032c-.166-.02-.3-.052-.398-.093a.488.488 0 0 1-.211-.149.349.349 0 0 1-.063-.21V19.28h-1.984c-.167 0-.292-.083-.375-.25-.083-.166-.125-.437-.125-.812 0-.198.01-.365.031-.5.021-.136.052-.248.094-.336a.41.41 0 0 1 .156-.188.426.426 0 0 1 .22-.054h1.984v-1.453c0-.98.09-1.82.273-2.524.182-.703.46-1.279.836-1.726a3.344 3.344 0 0 1 1.414-.993c.568-.213 1.237-.32 2.008-.32.364 0 .718.034 1.062.102.344.067.61.14.797.218.188.078.313.149.375.211a.748.748 0 0 1 .156.242 1.3 1.3 0 0 1 .086.36c.016.14.024.31.024.508zm14.11 19.843a.385.385 0 0 1-.056.211.43.43 0 0 1-.195.149 1.386 1.386 0 0 1-.367.093c-.151.021-.336.032-.555.032-.24 0-.435-.01-.586-.032a1.27 1.27 0 0 1-.36-.093.378.378 0 0 1-.179-.149.436.436 0 0 1-.047-.21v-1.86c-.802.885-1.593 1.531-2.375 1.938-.78.406-1.573.609-2.375.609-.937 0-1.726-.156-2.367-.469a4.16 4.16 0 0 1-1.554-1.273 5.15 5.15 0 0 1-.852-1.875c-.172-.714-.258-1.581-.258-2.602v-8.531c0-.083.018-.154.055-.211a.472.472 0 0 1 .21-.156c.105-.047.24-.078.407-.094.167-.016.375-.023.625-.023s.458.007.625.023c.167.016.3.047.398.094.1.047.17.099.211.156a.349.349 0 0 1 .063.21v8.188c0 .823.06 1.482.18 1.977.12.495.302.917.546 1.266.245.349.555.62.93.812.375.193.813.29 1.313.29.645 0 1.289-.23 1.93-.688.64-.459 1.32-1.13 2.038-2.016v-9.828c0-.083.019-.154.055-.211a.472.472 0 0 1 .211-.156 1.28 1.28 0 0 1 .398-.094c.162-.016.373-.023.633-.023.25 0 .459.007.625.023.167.016.297.047.39.094a.635.635 0 0 1 .212.156c.047.057.07.128.07.21V31.61zm7.343 0c0 .084-.021.154-.063.211a.49.49 0 0 1-.203.149 1.428 1.428 0 0 1-.39.093c-.167.021-.38.032-.641.032-.25 0-.458-.01-.625-.032-.167-.02-.3-.052-.398-.093a.43.43 0 0 1-.204-.149.385.385 0 0 1-.054-.21V10.733c0-.083.018-.156.054-.218a.407.407 0 0 1 .204-.157c.099-.041.231-.073.398-.093.167-.021.375-.032.625-.032.26 0 .474.01.64.032.167.02.298.052.391.093a.46.46 0 0 1 .203.157.385.385 0 0 1 .063.218V31.61zm16.24 0c0 .084-.021.154-.063.211a.49.49 0 0 1-.203.149 1.428 1.428 0 0 1-.39.093c-.167.021-.38.032-.641.032-.25 0-.458-.01-.625-.032-.167-.02-.3-.052-.399-.093a.43.43 0 0 1-.203-.149.385.385 0 0 1-.054-.21V10.733c0-.083.018-.156.054-.218a.407.407 0 0 1 .203-.157c.1-.041.232-.073.399-.093.167-.021.375-.032.625-.032.26 0 .474.01.64.032.167.02.297.052.391.093a.46.46 0 0 1 .203.157.385.385 0 0 1 .063.218V31.61zm15.36.016c0 .125-.043.219-.126.281a.877.877 0 0 1-.344.14c-.145.032-.359.048-.64.048a3.56 3.56 0 0 1-.649-.047c-.161-.031-.278-.078-.351-.14-.073-.063-.11-.157-.11-.282v-1.406a6.943 6.943 0 0 1-2.054 1.531 5.447 5.447 0 0 1-2.399.547c-.74 0-1.409-.096-2.008-.29a4.344 4.344 0 0 1-1.53-.835 3.75 3.75 0 0 1-.985-1.344c-.235-.531-.352-1.135-.352-1.812 0-.792.162-1.48.485-2.063a4.028 4.028 0 0 1 1.39-1.453c.604-.385 1.344-.674 2.219-.867.875-.193 1.86-.29 2.953-.29h1.938V22.25c0-.542-.058-1.02-.172-1.438a2.463 2.463 0 0 0-.555-1.039 2.383 2.383 0 0 0-.992-.625c-.406-.14-.906-.21-1.5-.21a5.97 5.97 0 0 0-1.711.226 9.145 9.145 0 0 0-1.328.5c-.38.182-.698.349-.953.5-.256.151-.446.227-.57.227a.385.385 0 0 1-.22-.063.533.533 0 0 1-.163-.187.966.966 0 0 1-.102-.32 2.729 2.729 0 0 1-.031-.43c0-.26.018-.467.054-.618a.894.894 0 0 1 .266-.43c.14-.135.383-.294.727-.476.343-.182.74-.349 1.187-.5.448-.15.938-.276 1.469-.375a8.77 8.77 0 0 1 1.61-.148c1.01 0 1.869.114 2.577.343.709.23 1.282.566 1.72 1.008.437.443.754.992.952 1.649.198.656.297 1.422.297 2.297v9.484zm-2.563-6.422h-2.204c-.708 0-1.322.06-1.843.18-.521.12-.953.297-1.297.531a2.197 2.197 0 0 0-.758.844 2.534 2.534 0 0 0-.242 1.133c0 .729.232 1.31.695 1.742.464.432 1.112.648 1.945.648.678 0 1.305-.172 1.883-.515.578-.344 1.185-.87 1.82-1.578v-2.985zm19.406 6.406c0 .084-.021.154-.063.211a.49.49 0 0 1-.203.149 1.428 1.428 0 0 1-.39.093c-.167.021-.375.032-.625.032-.26 0-.474-.01-.641-.032a1.428 1.428 0 0 1-.39-.093.49.49 0 0 1-.204-.149.349.349 0 0 1-.062-.21v-8.235c0-.802-.063-1.448-.188-1.938a4.01 4.01 0 0 0-.547-1.265 2.371 2.371 0 0 0-.93-.813c-.38-.187-.82-.28-1.32-.28-.645 0-1.291.228-1.937.687-.646.458-1.323 1.13-2.031 2.015v9.828c0 .084-.021.154-.063.211a.49.49 0 0 1-.203.149 1.428 1.428 0 0 1-.39.093c-.167.021-.38.032-.641.032-.25 0-.459-.01-.625-.032-.167-.02-.3-.052-.399-.093a.43.43 0 0 1-.203-.149.385.385 0 0 1-.055-.21V17.546c0-.083.016-.154.047-.211a.416.416 0 0 1 .188-.156 1.06 1.06 0 0 1 .36-.094 5.67 5.67 0 0 1 .577-.023c.23 0 .42.007.57.023a.923.923 0 0 1 .352.094.493.493 0 0 1 .18.156.385.385 0 0 1 .055.21v1.86c.791-.885 1.58-1.534 2.367-1.945.786-.412 1.58-.617 2.383-.617.937 0 1.726.159 2.367.476.64.318 1.159.742 1.554 1.274.396.531.68 1.153.852 1.867.172.713.258 1.57.258 2.57v8.578zm16.453-13.422c0 .365-.05.628-.148.79-.1.161-.227.242-.383.242h-2.016c.365.375.62.789.766 1.242.146.453.218.924.218 1.414 0 .813-.13 1.531-.39 2.156a4.32 4.32 0 0 1-1.117 1.586 5 5 0 0 1-1.727.992c-.667.23-1.406.344-2.219.344a5.78 5.78 0 0 1-1.632-.226c-.516-.151-.914-.342-1.196-.57a2.448 2.448 0 0 0-.46.64c-.12.24-.18.515-.18.828 0 .365.169.667.507.906.339.24.79.37 1.352.39l3.672.157c.698.021 1.338.117 1.922.29a4.774 4.774 0 0 1 1.515.734c.427.317.76.708 1 1.171.24.464.36 1.003.36 1.618 0 .645-.136 1.26-.407 1.843-.27.584-.684 1.097-1.242 1.54-.557.442-1.268.791-2.133 1.046-.864.256-1.885.383-3.062.383-1.135 0-2.102-.096-2.898-.289-.797-.193-1.451-.456-1.961-.789s-.88-.732-1.11-1.195a3.355 3.355 0 0 1-.344-1.508c0-.344.042-.677.125-1 .084-.323.211-.63.383-.922.172-.292.386-.57.64-.836.256-.266.55-.529.884-.789-.51-.26-.888-.589-1.133-.984a2.392 2.392 0 0 1-.367-1.282c0-.635.13-1.203.39-1.703s.584-.948.97-1.343a4.602 4.602 0 0 1-.767-1.305c-.187-.485-.28-1.07-.28-1.758 0-.802.135-1.52.405-2.156a4.575 4.575 0 0 1 1.125-1.61 4.936 4.936 0 0 1 1.727-1.007 6.623 6.623 0 0 1 2.195-.352c.427 0 .826.023 1.196.07.37.047.716.112 1.039.196h4.25c.177 0 .31.086.398.257.089.172.133.435.133.79zm-4.031 3.704c0-.959-.263-1.706-.79-2.243-.525-.536-1.273-.804-2.242-.804-.5 0-.934.083-1.304.25-.37.166-.677.396-.922.687a2.91 2.91 0 0 0-.547 1.008c-.12.38-.18.779-.18 1.195 0 .927.263 1.657.79 2.188.525.531 1.262.797 2.21.797.51 0 .953-.081 1.328-.242.376-.162.685-.386.93-.672.245-.287.427-.617.547-.992.12-.376.18-.766.18-1.172zm1.297 11.14c0-.604-.248-1.07-.743-1.398-.494-.328-1.164-.503-2.007-.524l-3.641-.125c-.333.26-.607.508-.82.743a4.066 4.066 0 0 0-.508.671c-.125.214-.211.425-.258.633a2.91 2.91 0 0 0-.07.64c0 .678.343 1.191 1.031 1.54s1.646.523 2.875.523c.781 0 1.435-.075 1.96-.226.527-.151.951-.352 1.274-.602.323-.25.555-.536.696-.86.14-.322.21-.66.21-1.015zm18.093-1.422a.385.385 0 0 1-.054.211.43.43 0 0 1-.196.149 1.386 1.386 0 0 1-.367.093c-.15.021-.336.032-.555.032-.24 0-.434-.01-.585-.032a1.27 1.27 0 0 1-.36-.093.378.378 0 0 1-.18-.149.436.436 0 0 1-.046-.21v-1.86c-.802.885-1.594 1.531-2.375 1.938-.782.406-1.573.609-2.375.609-.938 0-1.727-.156-2.368-.469a4.16 4.16 0 0 1-1.554-1.273 5.15 5.15 0 0 1-.852-1.875c-.172-.714-.258-1.581-.258-2.602v-8.531c0-.083.019-.154.055-.211a.472.472 0 0 1 .211-.156c.104-.047.24-.078.406-.094.167-.016.375-.023.625-.023s.459.007.625.023c.167.016.3.047.399.094.099.047.169.099.21.156a.349.349 0 0 1 .063.21v8.188c0 .823.06 1.482.18 1.977.12.495.302.917.547 1.266.244.349.554.62.93.812.374.193.812.29 1.312.29.646 0 1.289-.23 1.93-.688.64-.459 1.32-1.13 2.039-2.016v-9.828c0-.083.018-.154.054-.211a.472.472 0 0 1 .211-.156 1.28 1.28 0 0 1 .399-.094c.161-.016.372-.023.632-.023.25 0 .459.007.625.023.167.016.297.047.391.094a.635.635 0 0 1 .211.156c.047.057.07.128.07.21V31.61zm19.14-1.218l-.015.843a25.28 25.28 0 0 1-4.79 1.633c-1.577.36-3.137.54-4.679.54-.854 0-1.635-.084-2.344-.25a7.048 7.048 0 0 1-1.906-.735c-.666-.386-1.169-.88-1.508-1.484-.338-.605-.507-1.308-.507-2.11 0-1.417.71-2.682 2.132-3.797 1.422-1.114 3.545-2.078 6.368-2.89-.23-.667-.618-1.172-1.164-1.516-.547-.344-1.243-.516-2.086-.516-.907 0-1.73.185-2.47.555-.739.37-1.395.914-1.968 1.633l-.828-.797c.875-1.344 1.958-2.357 3.25-3.04 1.292-.681 2.797-1.023 4.516-1.023 1.395 0 2.622.389 3.68 1.165 1.057.776 1.95 1.94 2.679 3.492a16.93 16.93 0 0 1 1.273 3.898c.276 1.38.399 2.847.368 4.399zm-2.421-5.438c0-.375-.091-.656-.274-.844-.182-.187-.46-.28-.836-.28-.375 0-.658.093-.851.28-.193.188-.29.47-.29.844 0 .375.097.654.29.836.193.182.476.273.851.273s.654-.09.836-.273c.183-.182.274-.46.274-.836zm-3.719 4.281c0-.948-.044-1.885-.133-2.812a25.554 25.554 0 0 0-.414-2.75c-.979.281-1.862.58-2.648.898-.787.318-1.472.654-2.055 1.008l1.594 6.453c.833 0 1.552-.047 2.156-.14.604-.094 1.089-.245 1.453-.453.021-.376.034-.745.04-1.11.004-.364.007-.729.007-1.094zm4.36-.062c0-.396-.139-.734-.415-1.016a1.377 1.377 0 0 0-1.023-.422c-.396 0-.737.136-1.024.407-.286.27-.43.614-.43 1.03 0 .407.144.746.43 1.017.287.27.628.406 1.024.406a1.39 1.39 0 0 0 1.023-.414c.276-.276.414-.612.414-1.008zm20.234-11.969l-.11 1.328-1.812-.078-.156 1.297 1.828.156-.11 1.64-2.062-.233.031 1.328 1.875.312-.125 1.438-1.937-.157-.079 1.422 1.907.25c-.427 5.177-1.347 9.058-2.758 11.64-1.412 2.584-3.315 3.876-5.711 3.876a5.887 5.887 0 0 1-2.367-.484c-.745-.323-1.456-.808-2.133-1.454a8.786 8.786 0 0 1-1.563-1.968 10.144 10.144 0 0 1-.984-2.36l1.125-.718c.271.52.58.992.93 1.414.349.421.732.804 1.148 1.148.5.406 1.003.706 1.508.898.505.193 1.008.29 1.508.29.781 0 1.466-.227 2.055-.68.588-.453 1.085-1.138 1.492-2.055a11.4 11.4 0 0 0 .687-2.156c.177-.802.292-1.677.344-2.625a6.108 6.108 0 0 1-1.703.765 7.198 7.198 0 0 1-1.922.25c-1.958 0-3.638-.687-5.04-2.062-1.4-1.375-2.1-3.042-2.1-5 0-1.948.7-3.61 2.1-4.984 1.402-1.375 3.082-2.063 5.04-2.063.792 0 1.542.117 2.25.352.708.234 1.37.575 1.984 1.023l.11-2.39 4.75.64zm-5.328 7.453c0-.5-.063-.971-.188-1.414a4.737 4.737 0 0 0-.578-1.273c-.281-.438-.617-.766-1.008-.985a2.624 2.624 0 0 0-1.305-.328 3.02 3.02 0 0 0-1.57.422c-.474.281-.903.708-1.289 1.281a5.869 5.869 0 0 0-.766 1.602 5.993 5.993 0 0 0-.25 1.727c0 .51.06.992.18 1.445.12.453.305.867.555 1.242.302.448.646.781 1.031 1a2.58 2.58 0 0 0 1.297.328c.563 0 1.086-.143 1.57-.43.485-.286.914-.716 1.29-1.289.333-.51.588-1.041.765-1.593.177-.552.266-1.13.266-1.735zm-1.485.375c0 .532-.19.99-.57 1.375-.38.386-.846.578-1.399.578-.52 0-.968-.195-1.343-.586a1.912 1.912 0 0 1-.563-1.367c0-.52.193-.971.578-1.351.386-.38.828-.57 1.328-.57.532 0 .993.187 1.383.562.39.375.586.828.586 1.36zm26.719 5.782c-.26.26-.495.492-.703.695-.208.203-.39.367-.547.492l1.172 1.75-1.094.64-1.187-1.468c-.417.25-.86.46-1.329.633-.468.172-.968.289-1.5.351l-.03 1.844-1.407-.094.125-1.703c-.48 0-.99-.05-1.531-.148a12.514 12.514 0 0 1-1.703-.446l-.875 1.875-1.407-.765.954-1.75a7.888 7.888 0 0 1-1.399-.977 6.779 6.779 0 0 1-1.117-1.258l-1.672 1.063-.703-1.11 1.828-.953a8.402 8.402 0 0 1-.563-1.539 9.273 9.273 0 0 1-.265-1.617l-1.672.422-.484-1.375 2.156-.484c.052-.584.14-1.11.265-1.578.126-.47.287-.886.485-1.25l-1.516-.907.719-1.187L271.239 21a6.452 6.452 0 0 1 1.829-1.563l-1.282-1.859 1.406-.687 1.032 1.984c.333-.104.635-.187.906-.25.27-.063.51-.11.719-.14l.422-2.047 1.109.343-.281 1.625a4.286 4.286 0 0 1 2.266.625l1.546-1.531.875.734-1.469 1.594c.23.219.443.482.641.79.198.306.375.648.531 1.023l1.829-.61.312 1.157-1.766.609c.084.229.154.479.211.75.058.27.112.562.164.875l-7.265 1.265v.172c0 .76.08 1.477.242 2.149a7.64 7.64 0 0 0 .742 1.914c.396.719.87 1.258 1.422 1.617.552.36 1.172.54 1.86.54.708 0 1.452-.188 2.234-.563.781-.375 1.61-.948 2.484-1.72l.797 1.017zm-6.39-7.672c-.042-.459-.212-.802-.508-1.032-.297-.229-.722-.343-1.274-.343-.677 0-1.307.203-1.89.609-.584.406-.98.927-1.188 1.563l4.86-.797zM34.656 26.59c-5.25 2.637-8.285 6.864-8.327 6.921-.203.286-.508.47-.853.49h-.101c-.305 0-.589-.122-.812-.347-6.618-6.775-14.211-6.857-14.292-6.857-.304 0-.589-.123-.812-.347a1.15 1.15 0 0 1-.345-.817v-9.53l-7.998-3.387C.406 12.43 0 11.879 0 11.246s.406-1.184 1.117-1.471L23.549.265C24.056.04 24.604 0 24.97 0c.365 0 .913.04 1.42.266l22.433 9.51c.71.286 1.117.837 1.177 1.49 0 .633-.427 1.184-1.117 1.47l-5.237 2.204v8.428a1.15 1.15 0 0 1-1.116 1.163c-1.24.04-2.422.208-3.54.472L39 35.108l-2.167-2.495L34.839 39l-.182-12.41zm4.33-3.987c.764-.157 1.533-.27 2.304-.337V15.918l-2.31.978.006 5.707zm-4.368 1.404l-.077-5.233-8.151 3.45c-.508.225-1.056.266-1.422.266-.365 0-.913-.041-1.42-.266l-12.14-5.143v7.47c2.435.245 8.323 1.408 13.845 6.551a27.84 27.84 0 0 1 3.938-3.796 25.077 25.077 0 0 1 5.427-3.299zm2.754-8.949l9.014-3.813-20.89-8.837c-.081-.041-.284-.081-.527-.081-.244 0-.448.041-.528.081l-20.89 8.837 20.89 8.837c.081.041.284.081.528.081.243 0 .447-.041.527-.081l7.698-3.256L24 9l13.373 6.058z" fill="#4D4D4D" fill-rule="nonzero"/></svg>