<svg width="285" height="42" xmlns="http://www.w3.org/2000/svg"><g fill="none" fill-rule="evenodd"><text font-family="Jokerman-Regular, Jokerman" font-size="32" fill="#4D4D4D" transform="translate(0 -5)"><tspan x="58" y="37">Use</tspan> <tspan x="115.453" y="37" font-family="Calibri">ful</tspan> <tspan x="149.375" y="37" font-family="HelveticaNeue, Helvetica Neue"> </tspan> <tspan x="158.271" y="37" font-family="Calibri">langu</tspan> <tspan x="229.63" y="37">age</tspan></text><g fill-rule="nonzero"><path d="M48.823 9.776L26.39.266C25.883.04 25.335 0 24.97 0c-.366 0-.914.04-1.421.265L1.117 9.775C.406 10.062 0 10.613 0 11.246s.406 1.184 1.117 1.47l7.998 3.387v9.53c0 .307.122.592.345.817.223.224.508.347.812.347.081 0 7.674.082 14.292 6.857.223.225.507.347.812.347h.101c.345-.02.65-.204.853-.49.06-.081 6.212-8.653 16.2-8.98.629-.02 1.116-.53 1.116-1.163V14.94l5.237-2.204c.69-.286 1.117-.837 1.117-1.47-.06-.653-.467-1.204-1.177-1.49zm-7.532 12.49c-4.222.367-8.384 2.101-12.099 5.04a27.84 27.84 0 0 0-3.938 3.796c-5.522-5.143-11.41-6.306-13.845-6.551v-7.47l12.14 5.143c.507.225 1.055.266 1.42.266.366 0 .914-.041 1.422-.266l14.9-6.306v6.347zm-15.794-2.184c-.08.04-.284.081-.527.081-.244 0-.447-.04-.528-.081l-20.89-8.837 20.89-8.837c.08-.04.284-.081.528-.081.243 0 .446.04.527.081l20.89 8.837-20.89 8.837z" fill="#4D4D4D"/><path fill="#4C9C8D" d="M24 9l10.53 8.962L34.839 39l1.994-6.387L39 35.108l-.02-19.322z"/></g></g></svg>