<?xml version="1.0" encoding="utf-8"?>
<!-- Generator: Adobe Illustrator 16.0.0, SVG Export Plug-In . SVG Version: 6.00 Build 0)  -->
<!DOCTYPE svg PUBLIC "-//W3C//DTD SVG 1.1//EN" "http://www.w3.org/Graphics/SVG/1.1/DTD/svg11.dtd">
<svg version="1.1"
	 id="svg2" inkscape:output_extension="org.inkscape.output.svg.inkscape" sodipodi:docname="OUP logo.svg" inkscape:version="0.46" sodipodi:version="0.32" xmlns:dc="http://purl.org/dc/elements/1.1/" xmlns:cc="http://creativecommons.org/ns#" xmlns:rdf="http://www.w3.org/1999/02/22-rdf-syntax-ns#" xmlns:svg="http://www.w3.org/2000/svg" xmlns:sodipodi="http://sodipodi.sourceforge.net/DTD/sodipodi-0.dtd" xmlns:inkscape="http://www.inkscape.org/namespaces/inkscape"
	 xmlns="http://www.w3.org/2000/svg" xmlns:xlink="http://www.w3.org/1999/xlink" x="0px" y="0px" width="254.723px"
	 height="71.75px" viewBox="0 0 254.723 71.75" enable-background="new 0 0 254.723 71.75" xml:space="preserve">
<defs>
	
	
		<inkscape:perspective  inkscape:persp3d-origin="372.04724 : 350.78739 : 1" id="perspective10" inkscape:vp_z="744.09448 : 526.18109 : 1" inkscape:vp_y="0 : 1000 : 0" inkscape:vp_x="0 : 526.18109 : 1" sodipodi:type="inkscape:persp3d">
		</inkscape:perspective>
	
		<inkscape:perspective  inkscape:persp3d-origin="372.04724 : 350.78739 : 1" id="perspective2390" inkscape:vp_z="744.09448 : 526.18109 : 1" inkscape:vp_y="0 : 1000 : 0" inkscape:vp_x="0 : 526.18109 : 1" sodipodi:type="inkscape:persp3d">
		</inkscape:perspective>
</defs>
<sodipodi:namedview  inkscape:window-y="69" inkscape:window-x="66" inkscape:window-height="672" inkscape:window-width="640" inkscape:current-layer="layer1" inkscape:document-units="px" inkscape:pageshadow="2" inkscape:pageopacity="0.0" showgrid="false" inkscape:cy="186.59207" inkscape:cx="216.3237" inkscape:zoom="0.98994949" objecttolerance="10" guidetolerance="10" gridtolerance="10000" borderopacity="1.0" bordercolor="#666666" pagecolor="#ffffff" id="base">
	</sodipodi:namedview>
<g id="layer1" transform="translate(692.89034,-110.22754)" inkscape:groupmode="layer" inkscape:label="Layer 1">
	<path id="path2396" fill="#002E5F" d="M-629.689,181.932c-0.029-0.047-1.317-2.946-2.862-6.443s-2.936-6.575-3.091-6.839
		c-0.377-0.644-0.915-1.033-1.738-1.258c-0.445-0.122-0.694-0.25-0.717-0.368c-0.033-0.165,0.305-0.181,3.93-0.181
		c3.778,0,3.966,0.01,3.966,0.202c0,0.157-0.143,0.233-0.632,0.343c-0.795,0.176-1.413,0.486-1.575,0.789
		c-0.073,0.137-0.096,0.416-0.055,0.673c0.104,0.646,0.901,2.714,1.968,5.102c1.252,2.803,1.707,3.688,1.864,3.636
		c0.258-0.086,3.075-6.824,3.43-8.204c0.145-0.563,0.155-0.764,0.051-1.015c-0.152-0.366-0.956-0.797-1.836-0.982
		c-0.453-0.096-0.577-0.167-0.577-0.332c0-0.203,0.121-0.211,3.298-0.211c3.171,0,3.298,0.008,3.298,0.209
		c0,0.159-0.153,0.258-0.632,0.407c-0.47,0.147-0.774,0.34-1.186,0.753c-0.814,0.815-2.265,3.741-5.712,11.522
		C-629.431,181.841-629.577,182.112-629.689,181.932z M-682.859,181.517c-2.379-0.414-3.548-1.51-4.01-3.755
		c-0.085-0.413-0.282-2.013-0.438-3.554c-0.461-4.572-0.676-5.464-1.493-6.203c-0.308-0.277-0.559-0.396-0.949-0.447
		c-1.063-0.141-1.136-0.168-1.136-0.432c0-0.244,0.036-0.252,1.501-0.322c0.826-0.039,2.134-0.071,2.907-0.071h1.405l0.056,0.468
		c0.031,0.256,0.135,1.877,0.231,3.6c0.196,3.495,0.452,6.444,0.613,7.053c0.165,0.623,0.763,1.431,1.354,1.825
		c0.765,0.511,1.591,0.729,2.762,0.726c1.703-0.003,3.035-0.635,3.577-1.695c0.496-0.972,1.065-4.396,1.17-7.035
		c0.078-1.953-0.025-2.6-0.523-3.287c-0.34-0.469-1.229-0.994-1.682-0.994c-0.414,0-0.617-0.112-0.617-0.342
		c0-0.199,0.145-0.207,3.792-0.207c3.641,0,3.793,0.008,3.793,0.207c0,0.214-0.274,0.336-0.77,0.344
		c-0.383,0.005-1.204,0.395-1.577,0.747c-0.714,0.676-1.179,2.101-1.389,4.258c-0.312,3.212-0.464,4.388-0.667,5.187
		c-0.561,2.211-1.736,3.482-3.633,3.929C-679.448,181.718-681.695,181.72-682.859,181.517z M-580.676,181.39
		c-0.631-0.137-1.833-0.527-2.391-0.774l-0.632-0.281v-2.302c0-2.277,0.002-2.301,0.232-2.266c0.193,0.029,0.274,0.203,0.487,1.05
		c0.668,2.651,2.215,4.146,4.087,3.953c1.565-0.161,2.578-1.582,2.232-3.13c-0.116-0.52-0.237-0.715-0.763-1.24
		c-0.518-0.518-0.934-0.777-2.433-1.516c-0.995-0.489-2.04-1.062-2.322-1.272c-1.403-1.044-1.877-2.928-1.142-4.534
		c0.739-1.614,2.549-2.602,4.788-2.61c1.103-0.005,1.845,0.138,2.851,0.546c0.579,0.234,0.614,0.271,0.649,0.671
		c0.021,0.232,0.003,1.131-0.039,1.995c-0.073,1.492-0.088,1.571-0.298,1.539c-0.172-0.025-0.275-0.217-0.462-0.857
		c-0.448-1.531-1.007-2.377-1.852-2.798c-1.158-0.577-2.434-0.274-3.12,0.739c-0.455,0.673-0.543,1.227-0.319,1.996
		c0.286,0.982,0.927,1.527,3.052,2.595c2.032,1.021,2.516,1.329,3.103,1.979c1.005,1.113,1.199,2.812,0.482,4.246
		c-0.503,1.008-1.844,1.924-3.255,2.223C-578.298,181.458-580.215,181.491-580.676,181.39z M-462.777,181.189
		c-0.516-0.142-1.221-0.382-1.566-0.535l-0.628-0.278v-2.314c0-2.138,0.015-2.314,0.194-2.314c0.152,0,0.242,0.205,0.426,0.973
		c0.7,2.93,2.455,4.477,4.518,3.98c1.543-0.369,2.338-2.158,1.61-3.619c-0.384-0.769-1.028-1.238-3.035-2.211
		c-2.974-1.441-3.696-2.262-3.708-4.207c-0.008-1.459,0.553-2.486,1.8-3.292c1.706-1.103,4.189-1.22,6.333-0.298l0.543,0.234
		l-0.057,1.169c-0.123,2.5-0.158,2.763-0.385,2.763c-0.15,0-0.236-0.125-0.322-0.467c-0.378-1.508-1.005-2.618-1.76-3.118
		c-0.586-0.388-1.749-0.491-2.342-0.21c-0.862,0.408-1.398,1.242-1.395,2.17c0.006,1.305,0.756,2.099,3.045,3.219
		c2.51,1.229,3.258,1.818,3.805,3c0.365,0.793,0.338,2.273-0.059,3.126c-0.529,1.138-1.602,1.935-3.146,2.335
		C-459.904,181.552-461.625,181.506-462.777,181.189z M-449.129,181.231c-0.447-0.119-1.164-0.353-1.594-0.518l-0.782-0.301
		l-0.029-2.333c-0.028-2.263-0.023-2.333,0.188-2.333c0.164,0,0.247,0.115,0.338,0.467c0.489,1.905,0.961,2.895,1.743,3.657
		c1.46,1.424,3.801,1.149,4.587-0.538c0.513-1.103,0.256-2.319-0.653-3.098c-0.247-0.213-1.327-0.832-2.399-1.377
		c-2.901-1.477-3.591-2.216-3.695-3.966c-0.092-1.515,0.501-2.694,1.764-3.511c1.734-1.12,4.188-1.234,6.376-0.297l0.522,0.225
		l-0.061,1.389c-0.094,2.172-0.146,2.541-0.361,2.541c-0.135,0-0.267-0.261-0.496-0.987c-0.422-1.335-0.995-2.202-1.743-2.64
		c-0.527-0.308-0.658-0.337-1.362-0.307c-0.632,0.027-0.867,0.092-1.236,0.336c-0.904,0.599-1.295,1.639-1.004,2.676
		c0.258,0.923,0.98,1.517,3.176,2.609c2.51,1.25,3.037,1.652,3.613,2.759c0.252,0.484,0.29,0.69,0.294,1.601
		c0.003,0.924-0.031,1.115-0.302,1.667c-0.565,1.151-1.506,1.856-3.045,2.282C-446.382,181.538-447.996,181.536-449.129,181.231z
		 M-588.042,181.238c-0.726-0.044-1.554-0.155-1.84-0.247c-1.494-0.475-2.931-1.833-4.355-4.116
		c-0.691-1.108-1.807-3.112-1.756-3.155c0.021-0.018,0.309-0.121,0.642-0.229c1.573-0.512,2.211-1.335,2.217-2.858
		c0.004-0.99-0.244-1.596-0.892-2.18c-0.702-0.632-1.865-1.058-2.899-1.06l-0.53-0.002l0.042,5.524
		c0.046,6.124,0.06,6.248,0.762,6.973c0.387,0.399,0.994,0.628,2.004,0.753c0.503,0.063,0.616,0.115,0.616,0.285
		c0,0.199-0.162,0.207-4.343,0.207c-4.186,0-4.342-0.008-4.342-0.208c0-0.168,0.151-0.242,0.785-0.386
		c0.991-0.223,1.466-0.516,1.775-1.094c0.242-0.452,0.244-0.504,0.244-5.403v-4.947l-0.274-0.548
		c-0.326-0.649-0.66-0.864-1.77-1.137c-0.661-0.162-0.813-0.24-0.813-0.412c0-0.205,0.126-0.211,4.232-0.209
		c4.672,0.002,5.025,0.041,6.451,0.722c1.345,0.642,1.898,1.472,1.9,2.849c0.002,1.443-0.696,2.431-2.263,3.202l-0.692,0.341
		l0.263,0.52c0.823,1.623,2.934,4.166,4.295,5.174c0.615,0.456,1.43,0.888,2.057,1.091c0.326,0.105,0.412,0.188,0.412,0.399
		c0,0.222-0.051,0.264-0.302,0.249C-586.587,181.327-587.316,181.282-588.042,181.238z M-485.638,181.244
		c-0.695-0.042-1.539-0.156-1.875-0.255c-1.795-0.526-3.482-2.346-5.496-5.926l-0.76-1.351l0.574-0.174
		c1.564-0.474,2.279-1.217,2.445-2.544c0.246-1.965-1.123-3.293-3.708-3.598l-0.636-0.075l0.008,4.239
		c0.004,2.332,0.044,4.936,0.09,5.785c0.129,2.407,0.459,2.875,2.271,3.218c0.755,0.142,0.93,0.212,0.93,0.372
		c0,0.186-0.237,0.197-4.232,0.197c-4.051,0-4.232-0.009-4.232-0.204c0-0.16,0.156-0.243,0.727-0.384
		c1.66-0.41,1.88-0.794,2.025-3.553c0.062-1.168,0.066-3.168,0.012-4.947c-0.089-2.832-0.107-3.014-0.357-3.518
		c-0.305-0.616-0.844-0.945-1.877-1.148c-0.57-0.113-0.64-0.155-0.64-0.395v-0.27l4.205,0.047c4.622,0.051,5.085,0.105,6.403,0.76
		c0.781,0.389,1.305,0.859,1.63,1.463c0.327,0.607,0.339,2.105,0.022,2.749c-0.307,0.622-1.098,1.369-1.899,1.794
		c-0.378,0.199-0.687,0.422-0.686,0.494c0.003,0.217,1.217,2.094,1.97,3.047c0.867,1.096,2.307,2.455,3.118,2.943
		c0.332,0.201,0.905,0.467,1.274,0.594c0.567,0.193,0.672,0.27,0.672,0.488C-483.66,181.386-483.482,181.372-485.638,181.244z
		 M-668.568,180.923c0-0.164,0.123-0.236,0.555-0.33c1.119-0.24,1.783-0.756,2.026-1.573c0.342-1.153,0.569-5.373,0.435-8.086
		l-0.08-1.618l-0.708-0.732c-0.7-0.725-1.24-1.034-2.228-1.275c-0.223-0.055-0.4-0.172-0.42-0.279
		c-0.033-0.17,0.173-0.186,2.377-0.186h2.414l0.78,0.977c0.953,1.192,1.862,2.183,4.083,4.44c0.938,0.954,2.348,2.403,3.134,3.22
		c0.786,0.815,1.466,1.482,1.512,1.48c0.124-0.006,0.099-5.315-0.031-6.583c-0.125-1.222-0.312-1.788-0.741-2.243
		c-0.374-0.396-1.272-0.724-2.226-0.812c-0.648-0.06-0.767-0.103-0.767-0.275c0-0.194,0.171-0.203,3.792-0.203
		c3.61,0,3.792,0.01,3.792,0.202c0,0.155-0.139,0.233-0.598,0.336c-0.716,0.16-1.272,0.512-1.474,0.932
		c-0.459,0.954-0.733,5.433-0.612,9.99l0.075,2.831h-0.385c-0.349,0-0.49-0.115-1.526-1.236c-0.628-0.681-2.304-2.426-3.725-3.879
		c-1.421-1.454-3.175-3.271-3.898-4.041c-0.723-0.769-1.387-1.397-1.474-1.397c-0.137,0-0.148,0.472-0.082,3.38
		c0.084,3.69,0.176,4.656,0.502,5.296c0.426,0.835,0.956,1.114,2.561,1.349c0.71,0.104,0.852,0.158,0.852,0.326
		c0,0.193-0.185,0.203-3.958,0.203C-668.438,181.134-668.568,181.127-668.568,180.923z M-648.01,180.916
		c0-0.138,0.091-0.237,0.248-0.269c2.045-0.42,2.393-0.729,2.623-2.324c0.176-1.225,0.18-7.699,0.005-8.623
		c-0.17-0.896-0.323-1.307-0.603-1.62c-0.245-0.274-1.092-0.62-1.806-0.739c-0.36-0.061-0.467-0.127-0.467-0.288
		c0-0.204,0.137-0.21,4.178-0.21c3.931,0,4.177,0.012,4.177,0.195c0,0.149-0.179,0.241-0.763,0.392
		c-0.923,0.238-1.564,0.679-1.899,1.308c-0.25,0.467-0.25,0.489-0.245,5.031c0.004,3.967,0.029,4.643,0.192,5.182
		c0.288,0.957,0.988,1.445,2.414,1.685c0.312,0.052,0.412,0.121,0.412,0.284c0,0.209-0.106,0.215-4.232,0.215
		C-647.924,181.134-648.01,181.13-648.01,180.916z M-619.098,180.925c0-0.163,0.107-0.229,0.467-0.289
		c0.711-0.119,1.559-0.465,1.81-0.74c0.53-0.582,0.688-2.014,0.686-6.237c-0.002-4.689-0.151-5.378-1.285-5.953
		c-0.317-0.161-0.824-0.326-1.127-0.368c-0.442-0.061-0.551-0.117-0.551-0.285c0-0.203,0.174-0.209,6.169-0.209h6.169l-0.066,0.247
		c-0.037,0.136-0.067,1.001-0.068,1.924l-0.001,1.677h-0.278c-0.153,0-0.294-0.062-0.314-0.138c-0.279-1.071-0.491-1.5-1-2.024
		c-0.773-0.797-1.355-0.957-3.519-0.965l-1.649-0.007l-0.029,2.776l-0.03,2.775l1.239-0.002c1.494-0.003,2.589-0.147,2.813-0.371
		c0.091-0.091,0.273-0.502,0.407-0.913c0.189-0.584,0.293-0.755,0.477-0.782c0.229-0.035,0.235-0.002,0.235,1.264
		c0,0.715-0.033,2.004-0.072,2.866c-0.063,1.384-0.094,1.566-0.262,1.566c-0.143,0-0.21-0.13-0.268-0.52
		c-0.123-0.819-0.44-1.335-0.971-1.575c-0.383-0.174-0.726-0.209-2.037-0.211l-1.576-0.003l0.037,2.281
		c0.044,2.728,0.121,2.983,1.026,3.434c0.477,0.237,0.689,0.272,1.605,0.264c0.952-0.009,1.134-0.046,1.848-0.376
		c1.225-0.564,2.162-1.711,2.76-3.377c0.183-0.509,0.3-0.687,0.452-0.687c0.113,0,0.205,0.062,0.205,0.138
		c0,0.445-0.688,3.555-0.968,4.369l-0.208,0.605l-6.063,0.027C-618.951,181.135-619.098,181.13-619.098,180.925z M-570.837,180.916
		c0-0.149,0.096-0.237,0.302-0.281c1.482-0.31,2.004-0.601,2.269-1.261c0.314-0.785,0.422-2.604,0.369-6.211
		c-0.054-3.604-0.143-4.316-0.631-5c-0.22-0.311-1.102-0.697-1.897-0.834c-0.306-0.053-0.412-0.125-0.412-0.279
		c0-0.199,0.155-0.207,4.177-0.207c3.984,0,4.178,0.009,4.178,0.202c0,0.157-0.143,0.233-0.633,0.343
		c-1.181,0.262-1.927,0.837-2.241,1.727c-0.199,0.562-0.197,8.044,0.002,9.27c0.229,1.412,0.656,1.848,2.114,2.161
		c0.699,0.15,0.867,0.226,0.867,0.388c0,0.191-0.204,0.201-4.232,0.201C-570.75,181.134-570.837,181.13-570.837,180.916z
		 M-557.095,180.926c0-0.153,0.107-0.226,0.412-0.28c0.826-0.145,1.758-0.514,2.039-0.809c0.17-0.176,0.368-0.594,0.482-1.014
		c0.172-0.633,0.194-1.286,0.197-5.824l0.002-5.112l-1.429,0.034c-1.812,0.045-2.454,0.213-2.909,0.764
		c-0.348,0.42-0.733,1.469-0.85,2.308c-0.049,0.354-0.112,0.468-0.262,0.468c-0.109,0-0.232-0.053-0.271-0.118
		c-0.065-0.104,0.095-2.864,0.231-4.005l0.054-0.439h6.686h6.686l0.136,1.979c0.075,1.088,0.163,2.094,0.196,2.234
		c0.054,0.227,0.025,0.252-0.241,0.221c-0.276-0.033-0.319-0.105-0.502-0.825c-0.366-1.445-0.891-2.142-1.806-2.396
		c-0.482-0.134-2.049-0.232-2.943-0.185l-0.302,0.017v4.927c0,6.818,0.058,7.068,1.745,7.552c0.279,0.08,0.719,0.179,0.976,0.22
		c0.361,0.057,0.468,0.121,0.468,0.283c0,0.204-0.141,0.211-4.397,0.211C-556.935,181.134-557.095,181.126-557.095,180.926z
		 M-539.946,180.926c0-0.153,0.106-0.226,0.413-0.28c1.402-0.246,2.207-0.719,2.531-1.488c0.102-0.244,0.183-0.924,0.219-1.834
		l0.056-1.447l-0.472-0.861c-1.382-2.527-3.719-6.05-4.523-6.82c-0.424-0.405-1.152-0.748-1.824-0.855
		c-0.359-0.059-0.467-0.124-0.467-0.286c0-0.203,0.13-0.21,3.683-0.21c3.524,0,3.683,0.008,3.683,0.205
		c0,0.15-0.135,0.244-0.508,0.348c-0.278,0.078-0.649,0.262-0.824,0.408c-0.629,0.529-0.402,1.098,1.698,4.252
		c1.577,2.369,1.277,2.334,2.364,0.279c0.825-1.561,1.46-3.184,1.483-3.797c0.022-0.566-0.198-0.844-0.874-1.102
		c-0.33-0.127-0.481-0.248-0.481-0.389c0-0.195,0.144-0.205,2.913-0.205c2.754,0,2.914,0.011,2.914,0.201
		c0,0.154-0.163,0.247-0.682,0.392c-0.855,0.237-1.586,0.769-2.224,1.617c-0.563,0.749-1.694,2.776-2.721,4.874l-0.696,1.424v1.6
		c0,1.807,0.156,2.432,0.721,2.908c0.365,0.307,1.256,0.662,1.945,0.777c0.36,0.06,0.468,0.126,0.468,0.287
		c0,0.204-0.141,0.211-4.397,0.211C-539.787,181.134-539.946,181.126-539.946,180.926z M-516.53,180.923
		c0-0.161,0.107-0.228,0.468-0.287c0.727-0.121,1.56-0.467,1.838-0.763c0.509-0.542,0.58-1.144,0.635-5.345
		c0.079-6.14-0.08-6.644-2.217-7.049c-0.629-0.119-0.724-0.169-0.724-0.378c0-0.218,0.073-0.247,0.797-0.315
		c0.438-0.041,2.331-0.053,4.205-0.027c3.271,0.043,3.452,0.057,4.507,0.339c1.961,0.523,3.094,1.242,3.619,2.295
		c0.529,1.063,0.336,2.868-0.411,3.849c-0.747,0.979-2.202,1.67-4.108,1.95c-1.252,0.184-1.463,0.163-1.463-0.145
		c0-0.232,0.075-0.275,0.688-0.394c1.961-0.381,2.617-1.107,2.699-2.99c0.035-0.801,0-1.199-0.139-1.619
		c-0.23-0.693-0.957-1.518-1.689-1.916c-0.68-0.37-2.068-0.736-2.793-0.736h-0.539l0.04,5.635c0.036,5.088,0.06,5.684,0.237,6.154
		c0.324,0.857,1.003,1.254,2.514,1.465c0.412,0.059,0.521,0.117,0.521,0.281c0,0.199-0.16,0.207-4.342,0.207
		C-516.39,181.134-516.53,181.127-516.53,180.923z M-482.121,180.934c0-0.163,0.166-0.237,0.863-0.388
		c1.166-0.25,1.591-0.619,1.857-1.611c0.166-0.623,0.191-1.277,0.191-5.111c0.001-4.695-0.02-4.898-0.557-5.619
		c-0.312-0.418-0.84-0.68-1.701-0.84c-0.516-0.096-0.654-0.164-0.654-0.321c0-0.192,0.271-0.2,6.148-0.2h6.148l-0.056,1.841
		c-0.031,1.013-0.074,1.899-0.096,1.97c-0.022,0.071-0.138,0.104-0.259,0.072c-0.158-0.041-0.281-0.261-0.441-0.789
		c-0.566-1.858-1.662-2.427-4.697-2.433l-1.221-0.002l-0.069,0.577c-0.038,0.317-0.069,1.586-0.07,2.82l-0.001,2.242l1.749-0.061
		c1.132-0.039,1.859-0.113,2.062-0.211c0.342-0.164,0.641-0.69,0.754-1.328c0.06-0.342,0.117-0.412,0.337-0.412h0.266v1.962
		c0,2.706-0.086,3.645-0.333,3.645c-0.148,0-0.208-0.131-0.265-0.585c-0.084-0.673-0.361-1.187-0.794-1.471
		c-0.252-0.165-0.592-0.204-2.039-0.235l-1.736-0.037v1.929c0,1.961,0.111,2.889,0.404,3.351c0.557,0.878,3.125,0.985,4.484,0.189
		c0.963-0.563,1.979-1.962,2.425-3.333c0.138-0.426,0.241-0.577,0.395-0.577c0.132,0,0.207,0.077,0.207,0.215
		c0,0.382-0.647,3.335-0.904,4.128l-0.25,0.77l-6.073,0.027C-481.88,181.134-482.121,181.128-482.121,180.934z M-674.174,150.497
		c-5.469-0.562-9.861-2.513-13.185-5.854c-1.472-1.479-2.441-2.843-3.404-4.789c-1.526-3.085-2.121-5.76-2.126-9.564
		c-0.003-2.264,0.159-3.666,0.647-5.606c1.714-6.808,7.048-11.933,14.286-13.725c2.191-0.543,3.795-0.73,6.256-0.731
		c9.854-0.005,17.295,4.879,20.013,13.136c1.474,4.478,1.508,9.654,0.092,13.906c-1.645,4.938-5.068,8.753-9.96,11.1
		c-2.281,1.096-4.848,1.814-7.461,2.09C-669.985,150.562-673.315,150.586-674.174,150.497z M-668.967,148.648
		c5.113-0.771,8.373-3.896,10.012-9.6c1.034-3.596,1.314-8.539,0.716-12.606c-0.661-4.489-2.035-7.574-4.575-10.272
		c-1.809-1.921-3.989-3.231-6.359-3.82c-1.064-0.265-1.419-0.3-2.968-0.3c-3.832,0-6.481,1.055-8.922,3.551
		c-3.136,3.206-4.866,9.426-4.443,15.971c0.387,5.983,1.822,9.734,4.981,13.019C-677.331,147.911-673.35,149.31-668.967,148.648z
		 M-548.85,150.503c-0.151-0.022-0.72-0.094-1.265-0.16c-1.263-0.152-3.354-0.646-4.593-1.086
		c-5.743-2.035-9.994-6.293-11.879-11.896c-0.749-2.225-1.062-4.294-1.062-7.016c0-2.646,0.299-4.692,0.996-6.816
		c2.378-7.246,8.79-12.121,17.198-13.077c1.289-0.147,4.611-0.146,5.968,0.001c7.261,0.788,13.034,4.529,15.948,10.334
		c2.158,4.298,2.785,9.605,1.719,14.559c-0.516,2.397-1.625,4.943-2.993,6.871c-0.812,1.145-2.785,3.191-3.822,3.965
		c-3.997,2.982-8.618,4.418-14.071,4.375C-547.734,150.549-548.699,150.524-548.85,150.503z M-544.123,148.7
		c6.287-0.66,9.974-5.03,11.172-13.244c0.277-1.896,0.281-6.946,0.01-8.795c-0.492-3.328-1.452-6.084-2.855-8.19
		c-3.254-4.885-7.824-7.089-13.109-6.323c-2.676,0.388-4.64,1.299-6.435,2.986c-2.673,2.511-4.31,6.451-4.837,11.645
		c-0.176,1.732-0.082,6.058,0.164,7.633c0.369,2.354,0.911,4.197,1.768,6.014c0.758,1.607,1.508,2.683,2.84,4.069
		C-552.199,147.832-548.608,149.171-544.123,148.7z M-648.12,148.66c0-0.649,0.074-0.727,0.704-0.727
		c0.196,0,0.82-0.079,1.386-0.177c3.983-0.684,6.112-2.221,9.2-6.639c2.111-3.021,6.668-9.519,6.748-9.623
		c0.048-0.063-0.064-0.355-0.254-0.66c-0.188-0.3-1.699-2.772-3.357-5.494c-1.659-2.721-3.315-5.367-3.681-5.881
		c-2.095-2.942-4.286-4.835-6.788-5.865c-0.718-0.295-2.489-0.73-2.973-0.73c-0.696,0-0.765-0.065-0.765-0.727v-0.593h6.213h6.213
		l1.018,1.566c0.56,0.862,2.674,4.151,4.698,7.31c2.024,3.159,3.737,5.744,3.807,5.744c0.15,0.001,2.044-2.826,3.366-5.025
		c2.155-3.585,2.884-5.674,2.344-6.717c-0.399-0.773-1.658-1.39-3.109-1.526l-0.693-0.065v-0.644v-0.644h7.865h7.866l-0.033,0.632
		l-0.033,0.632l-0.439,0.031c-1.631,0.115-3.76,0.711-5.234,1.466c-1.011,0.518-2.76,1.851-3.392,2.585
		c-1.081,1.255-1.997,2.534-4.125,5.756c-3.299,4.997-3.363,5.097-3.315,5.222c0.086,0.226,8.474,13.229,9.113,14.126
		c2.332,3.277,4.481,4.996,7.172,5.734c0.781,0.215,1.139,0.241,3.188,0.236c2.618-0.008,4.124-0.15,5.634-0.533
		c2.627-0.666,4.18-2.007,4.949-4.274l0.301-0.888l0.032-12.038c0.022-8.353-0.005-12.322-0.089-12.968
		c-0.362-2.763-1.436-3.803-4.535-4.395c-0.618-0.118-1.31-0.244-1.537-0.281c-0.405-0.064-0.413-0.074-0.413-0.555v-0.49h14.544
		h14.544l0.246,3.875c0.135,2.131,0.244,3.94,0.242,4.019c-0.002,0.102-0.152,0.134-0.515,0.11l-0.512-0.033l-0.182-0.773
		c-0.716-3.059-2.843-4.729-6.71-5.271c-0.857-0.12-2.514-0.199-5.14-0.245l-3.875-0.067v7.667v7.667l4.15-0.06
		c3.665-0.053,5.936-0.177,6.541-0.356c0.181-0.054,0.192,0.207,0.192,4.402v4.46h-0.428c-0.489,0-0.562-0.106-0.562-0.824
		c0-1.259-0.601-3.112-1.23-3.794c-1.052-1.141-2.556-1.455-6.448-1.347l-2.232,0.062l0.045,6.387
		c0.048,6.797,0.08,7.233,0.612,8.277c0.318,0.623,1.096,1.288,1.824,1.561c0.532,0.199,2.677,0.673,4.268,0.942
		c0.404,0.068,0.412,0.079,0.412,0.559v0.49H-599.9h-18.62l-5.103-7.99c-2.807-4.395-5.15-8.004-5.208-8.021
		c-0.109-0.032-0.77,0.822-2.501,3.235c-2.364,3.294-4.317,6.7-4.586,8c-0.327,1.574,0.732,2.692,3.381,3.572l0.797,0.265v0.47v0.47
		h-8.19h-8.19V148.66z M-516.273,144.224c0.04-2.766,0.127-8.418,0.193-12.56c0.138-8.596,0.089-14.936-0.121-15.775
		c-0.35-1.397-1.037-2.319-1.963-2.635c-0.28-0.096-1.021-0.205-1.646-0.244l-1.137-0.069l0.075-0.505
		c0.041-0.278,0.083-0.512,0.093-0.521c0.056-0.054,7.391-0.275,11.01-0.333c4.409-0.07,6.403,0.014,8.686,0.363
		c5.178,0.793,8.38,2.834,9.463,6.033c0.401,1.188,0.469,3.19,0.15,4.483c-0.867,3.515-3.896,6.365-8.322,7.828l-0.906,0.3
		l0.319,0.4c0.176,0.22,1.121,1.316,2.101,2.434c8.166,9.328,13.542,13.819,17.364,14.511c0.792,0.144,2.007,0.076,3.296-0.183
		c2.285-0.459,3.765-1.839,4.346-4.053c0.368-1.405,0.398-2.63,0.358-14.178c-0.036-10.496-0.056-11.5-0.235-12.258
		c-0.41-1.724-1.154-2.713-2.54-3.371c-0.813-0.386-2.554-0.873-3.536-0.988l-0.586-0.068v-0.518v-0.518l2.281-0.07
		c5.324-0.164,14.831-0.209,16.848-0.081c8.631,0.552,14.413,2.63,18.169,6.529c3.067,3.184,4.504,7.4,4.333,12.712
		c-0.065,2.037-0.23,3.014-0.789,4.687c-2.12,6.34-8.375,11.529-15.803,13.111c-2.198,0.468-2.551,0.479-16.622,0.495
		c-12.378,0.014-13.626-0.001-14.665-0.176c-2.678-0.449-5.039-1.57-8.669-4.114c-2.675-1.874-4.863-3.963-7.468-7.128
		c-1.161-1.411-5.404-7.008-5.498-7.253c-0.051-0.134,0.033-0.167,0.43-0.167c0.729,0,2.293-0.49,3.416-1.07
		c2.277-1.176,4.35-3.17,5.246-5.046c0.52-1.091,0.699-2.154,0.561-3.325c-0.264-2.238-1.25-3.976-3.027-5.337
		c-1.912-1.464-4.471-2.312-7.392-2.449l-1.331-0.062l-0.07,3.616c-0.156,8.071-0.21,25.695-0.082,26.732
		c0.367,2.971,1.426,3.818,5.453,4.361c1.977,0.268,1.813,0.188,1.813,0.888v0.603h-6.834h-6.833L-516.273,144.224z
		 M-457.661,147.319c6.107-0.989,10.368-5.318,11.774-11.96c0.383-1.811,0.492-5.429,0.22-7.281
		c-0.419-2.851-1.241-5.083-2.644-7.181c-2.659-3.98-6.914-6.466-12.539-7.325c-1.492-0.228-4.666-0.262-5.582-0.06l-0.635,0.14
		l0.034,15.025c0.03,13.546,0.052,15.083,0.214,15.607c0.52,1.679,1.385,2.544,2.949,2.946
		C-462.403,147.607-459.681,147.647-457.661,147.319z"/>
</g>
</svg>
